# xmcd CD database file
#
# Track frame offsets:
# 202
# 13732
# 25865
# 42120
# 54842
# 68090
# 82042
# 96567
# 108925
# 122807
# 136435
# 151900
# 165250
# 178037
# 191630
# 205505
# 218470
# 237577
# 256867
#
# Disc length: 3664 seconds
# Revision: 2
# Processed by: cddbd v1.5.2PL0 Copyright (c) Steve Scherf et al.
# Submitted via: MusicBin 0.4
#
DISCID=f80e4e13
DTITLE=Various Artist - Whistle Away Your Blues
DYEAR=1929
DGENRE=Vocal
TTITLE0=Jay Whidden Band - Whistle Away Your Blues
TTITLE1=Jay Whidden Band - Mon Paris
TTITLE2=Savoy Havana Band - Why Robinson Crusoe Got the Blues
TTITLE3=Casino Dance Orchestra - When It's Night Time in Italy
TTITLE4=New Princes Toronto Band - Sunny Havana
TTITLE5=Jack Hylton Band - To Know You Is to Love You
TTITLE6=Jack Hylton Band - Dreamy Honolulu
TTITLE7=Lloyd Shakespeare Band - Today's a Sunny Day for Me
TTITLE8=Lloyd Shakespeare Band - Laughing Marionette
TTITLE9=Lou Gold Band - Here I Am Broken Hearted
TTITLE10=Layton and Johnstone - Little Old Church in the Valley
TTITLE11=Norman Blair - Carolina Moon
TTITLE12=Norman Blair - Just Plain Folk
TTITLE13=Admirals - Gonna Get a Girl
TTITLE14=Will Oakland - White Wings
TTITLE15=Sam Lanin - Side by Side
TTITLE16=Harry Lauder - I Love a Lassie
TTITLE17=Harry Lauder - The Wedding of Lauchie McGraw
TTITLE18=Harry Lauder - A Wee Deoch An' Doris
EXTD=
EXTT0=
EXTT1=
EXTT2=
EXTT3=
EXTT4=
EXTT5=
EXTT6=
EXTT7=
EXTT8=
EXTT9=
EXTT10=
EXTT11=
EXTT12=
EXTT13=
EXTT14=
EXTT15=
EXTT16=
EXTT17=
EXTT18=
PLAYORDER=
